{"title":"Snow Flower and the Secret Fan [Wayne Wang, 2011] 720p.x264.AC3","uid":13706590,"size":2802760008,"categoryP":"video","categoryS":"hd___movies","magnet":"?xt=urn:btih:fe0cd321c8d451f46477da23d0de076ea1fb2570&amp;dn=Snow+Flower+and+the+Secret+Fan+%5BWayne+Wang%2C+2011%5D+720p.x264.AC3&amp;tr=udp%3A%2F%2Ftracker.leechers-paradise.org%3A6969&amp;tr=udp%3A%2F%2Fzer0day.ch%3A1337&amp;tr=udp%3A%2F%2Fopen.demonii.com%3A1337&amp;tr=udp%3A%2F%2Ftracker.coppersurfer.tk%3A6969&amp;tr=udp%3A%2F%2Fexodus.desync.com%3A6969","seeders":0,"leechers":1,"uploader":null,"files":2,"time":1456832544,"description":"General\r\nComplete name                            : C:Snow.Flower.and.the.Secret.Fan.2011.720p.BDRip.x264.AC3-ZERO.mkv\r\nFormat                                   : Matroska\r\nFormat version                           : Version 2\r\nFile size                                : 2.61 GiB\r\nDuration                                 : 1h 44mn\r\nOverall bit rate                         : 3 584 Kbps\r\nEncoded date                             : UTC 2011-10-02 10:53:01\r\nWriting application                      : mkvmerge v5.0.0 ('Die Wahre Liebe') built on Sep 25 2011 20:33:49\r\nWriting library                          : libebml v1.2.2 + libmatroska v1.3.0\r\n\r\nVideo\r\nID                                       : 1\r\nFormat                                   : AVC\r\nFormat/Info                              : Advanced Video Codec\r\nFormat profile                           :   \r\nFormat settings, CABAC                   : Yes\r\nFormat settings, ReFrames                : 4 frames\r\nCodec ID                                 : V_MPEG4/ISO/AVC\r\nDuration                                 : 1h 44mn\r\nBit rate                                 : 2 920 Kbps\r\nWidth                                    : 1 280 pixels\r\nHeight                                   : 540 pixels\r\nDisplay aspect ratio                     : 2.40:1\r\nFrame rate mode                          : Constant\r\nFrame rate                               : 23.976 fps\r\nColor space                              : YUV\r\nChroma subsampling                       : 4:2:0\r\nBit depth                                : 8 bits\r\nScan type                                : Progressive\r\nBits/(Pixel*Frame)                       : 0.176\r\nStream size                              : 2.09 GiB (80%)\r\nWriting library                          : x264 core 118 r2085 8a62835\r\nLanguage                                 : English\r\nDefault                                  : Yes\r\nForced                                   : No\r\n\r\nAudio\r\nID                                       : 2\r\nFormat                                   : AC-3\r\nFormat/Info                              : Audio Coding 3\r\nMode extension                           : CM (complete main)\r\nFormat settings, Endianness              : Big\r\nCodec ID                                 : A_AC3\r\nDuration                                 : 1h 44mn\r\nBit rate mode                            : Constant\r\nBit rate                                 : 640 Kbps\r\nChannel(s)                               : 6 channels\r\nChannel positions                        : Front: L C R, Side: L R, LFE\r\nSampling rate                            : 48.0 KHz\r\nBit depth                                : 16 bits\r\nCompression mode                         : Lossy\r\nStream size                              : 477 MiB (18%)\r\nLanguage                                 : English\r\nDefault                                  : Yes\r\nForced                                   : No\r\n\r\nSynchronized English subtitles are available at opensubtitles(dot)org","torrent":{"xt":"urn:btih:fe0cd321c8d451f46477da23d0de076ea1fb2570","amp;dn":"Snow+Flower+and+the+Secret+Fan+%5BWayne+Wang%2C+2011%5D+720p.x264.AC3","amp;tr":["udp%3A%2F%2Ftracker.leechers-paradise.org%3A6969","udp%3A%2F%2Fzer0day.ch%3A1337","udp%3A%2F%2Fopen.demonii.com%3A1337","udp%3A%2F%2Ftracker.coppersurfer.tk%3A6969","udp%3A%2F%2Fexodus.desync.com%3A6969"],"infoHash":"fe0cd321c8d451f46477da23d0de076ea1fb2570","infoHashBuffer":{"type":"Buffer","data":[254,12,211,33,200,212,81,244,100,119,218,35,208,222,7,110,161,251,37,112]},"announce":[],"urlList":[]}}